<svg width="24" height="24" viewBox="0 0 30 20" xmlns="http://www.w3.org/2000/svg">
  <rect width="30" height="20" fill="#DE2910"/>
  
  <!-- Big star -->
  <polygon fill="#FFDE00"
    points="5,2 6,5 9,5 6.5,7 7.5,10 5,8.5 2.5,10 3.5,7 1,5 4,5"/>
  
  <!-- Small stars -->
  <polygon fill="#FFDE00"
    points="11,2 11.5,3.2 12.8,3.2 11.8,4 12.2,5.2 11,4.5 9.8,5.2 10.2,4 9.2,3.2 10.5,3.2"/>
  
  <polygon fill="#FFDE00"
    points="13,4 13.5,5.2 14.8,5.2 13.8,6 14.2,7.2 13,6.5 11.8,7.2 12.2,6 11.2,5.2 12.5,5.2"/>
  
  <polygon fill="#FFDE00"
    points="13,7 13.5,8.2 14.8,8.2 13.8,9 14.2,10.2 13,9.5 11.8,10.2 12.2,9 11.2,8.2 12.5,8.2"/>
  
  <polygon fill="#FFDE00"
    points="11,9 11.5,10.2 12.8,10.2 11.8,11 12.2,12.2 11,11.5 9.8,12.2 10.2,11 9.2,10.2 10.5,10.2"/>
</svg>